<?xml version="1.0" encoding="utf-8"?>
<!-- Generator: Adobe Illustrator 21.0.0, SVG Export Plug-In . SVG Version: 6.00 Build 0)  -->
<svg version="1.1" id="Layer_1" xmlns="http://www.w3.org/2000/svg" xmlns:xlink="http://www.w3.org/1999/xlink" x="0px" y="0px"
	 viewBox="0 0 758 200" style="enable-background:new 0 0 758 200;" xml:space="preserve">
<style type="text/css">
	.st0{fill:#FFFFFF;}
</style>
<g>
	<path d="M29.2,52.6h22.3v10.8c4.5-3.7,8.9-6.7,13.3-8.8c4.4-2.1,9.7-3.2,16.2-3.2V73c-2.2-0.8-4.4-1.2-6.8-1.2
		c-2.3,0-4.8,0.4-7.5,1.1c-2.7,0.7-5.2,2-7.4,3.7c-2.3,1.7-4.1,4-5.6,6.8c-1.5,2.8-2.2,6.3-2.2,10.4V154H29.2V52.6z"/>
	<path d="M154,124.8c0,3.2,1,5.7,2.9,7.4c2,1.7,4.6,2.6,8,2.6c4.2,0,7-1.1,8.4-3.4c1.4-2.3,2.2-4.5,2.5-6.8h22.3
		c0,4.3-0.8,8.3-2.3,12c-1.5,3.7-3.7,6.9-6.7,9.6c-2.9,2.8-6.4,5-10.5,6.6c-4.1,1.6-8.7,2.4-13.8,2.4c-6.8,0-12.7-1.3-17.7-4
		c-4.9-2.7-8.7-6.2-11.4-10.6c-1.6-2.7-2.7-5.7-3.3-9.2c-0.6-3.5-0.9-7.3-0.9-11.4V86.6c0-4.1,0.3-7.9,0.9-11.4
		c0.6-3.5,1.7-6.5,3.3-9.2c2.6-4.4,6.4-7.9,11.4-10.6c4.9-2.7,10.8-4,17.7-4c5.1,0,9.7,0.8,13.9,2.4c4.1,1.6,7.6,3.8,10.5,6.7
		c2.8,2.9,5,6.3,6.5,10.3c1.5,4,2.3,8.3,2.3,13h-22.3c0-4.1-1-7.2-2.9-9.1c-2-1.9-4.6-2.9-8-2.9c-3.3,0-6,1-8,2.9
		c-2,1.9-2.9,4.8-2.9,8.7V124.8z"/>
	<path class="st0" d="M332.8,81c-0.1-3.5-1.3-6.1-3.6-7.8c-2.3-1.7-4.8-2.6-7.7-2.6c-3.5,0-6.2,1-8.1,3.1c-1.9,2.1-2.8,4.4-2.8,7.1
		c0,1.9,0.5,3.7,1.5,5.5c1,1.8,3.6,3.4,7.9,4.9L333,96c8.3,2.9,14,6.9,17.1,12c3.1,5.1,4.7,10.6,4.7,16.6c0,4.3-0.8,8.2-2.5,11.9
		c-1.7,3.7-4,6.9-6.9,9.7c-2.9,2.8-6.4,5-10.5,6.6c-4.1,1.6-8.5,2.4-13.3,2.4c-4.4,0-8.5-0.7-12.4-2c-3.9-1.3-7.4-3.3-10.4-5.8
		c-3-2.5-5.4-5.7-7.3-9.5c-1.9-3.8-2.9-8.2-3.1-13.3h21c0.4,2.8,1.5,5.4,3.2,7.8c1.7,2.4,4.6,3.6,8.8,3.6c3.2,0,6.1-1,8.6-2.9
		c2.5-1.9,3.8-4.6,3.8-8.1c0-2.8-0.8-5.2-2.4-7.2c-1.6-2-4.5-3.7-8.7-5.2l-10.7-3.6c-7-2.4-12.5-6-16.5-10.7c-4-4.7-6-10.5-6-17.3
		c0-4.3,0.9-8.2,2.6-11.9c1.7-3.7,4.1-6.8,7.1-9.4c3-2.6,6.4-4.6,10.4-6.1c3.9-1.5,8.1-2.2,12.7-2.2c4.5,0,8.7,0.8,12.6,2.3
		c3.9,1.5,7.2,3.6,9.9,6.2c2.8,2.6,4.9,5.7,6.5,9.4c1.6,3.7,2.4,7.6,2.4,11.7H332.8z"/>
	<path class="st0" d="M409.8,11.7h22.3v50.8h0.4c2.3-3.2,5.1-5.8,8.4-7.9c3.3-2.1,7.5-3.1,12.6-3.1c2.8,0,5.5,0.4,8.3,1.3
		c2.8,0.9,5.2,2.3,7.4,4.3c2.2,2,3.9,4.6,5.2,7.7c1.3,3.1,2,7,2,11.5V154h-22.3V83.8c0-3.7-0.9-6.7-2.8-8.8
		c-1.9-2.1-4.6-3.2-8.1-3.2c-4.2,0-7.1,1.2-8.7,3.6c-1.6,2.4-2.4,5.9-2.4,10.4V154h-22.3V11.7z"/>
	<path class="st0" d="M533.4,86.6c0-4.1,0.3-7.9,0.9-11.4c0.6-3.5,1.7-6.5,3.3-9.2c2.6-4.4,6.4-7.9,11.4-10.6c4.9-2.7,10.8-4,17.7-4
		c6.8,0,12.7,1.3,17.7,4c4.9,2.7,8.7,6.2,11.4,10.6c1.6,2.7,2.7,5.7,3.3,9.2c0.6,3.5,0.9,7.3,0.9,11.4V120c0,4.1-0.3,7.9-0.9,11.4
		c-0.6,3.5-1.7,6.5-3.3,9.2c-2.6,4.4-6.4,7.9-11.4,10.6c-4.9,2.7-10.8,4-17.7,4c-6.8,0-12.7-1.3-17.7-4c-4.9-2.7-8.7-6.2-11.4-10.6
		c-1.6-2.7-2.7-5.7-3.3-9.2c-0.6-3.5-0.9-7.3-0.9-11.4V86.6z M555.6,123.2c0,3.9,1,6.8,2.9,8.7c2,1.9,4.6,2.9,8,2.9c3.3,0,6-1,8-2.9
		c2-1.9,2.9-4.8,2.9-8.7V83.4c0-3.9-1-6.8-2.9-8.7c-2-1.9-4.6-2.9-8-2.9c-3.3,0-6,1-8,2.9c-2,1.9-2.9,4.8-2.9,8.7V123.2z"/>
	<path class="st0" d="M656.7,52.6H679v9.2c2.8-2.9,5.6-5.4,8.5-7.4c2.9-2,7.1-3,12.7-3c9.2,0,15.6,3.2,19.4,9.6
		c1.3,2.3,2.3,5.1,2.8,8.4c0.6,3.3,0.9,7.8,0.9,13.4v38.6c0,7.3-0.2,12.7-0.7,16.2c-0.4,3.5-1.4,6.3-2.8,8.4
		c-1.9,2.7-4.3,4.9-7.3,6.6c-3,1.7-7.2,2.6-12.6,2.6c-4.4,0-8.3-0.9-11.7-2.7c-3.4-1.8-6.4-4.4-8.8-7.7H679V195h-22.3V52.6z
		 M701,85.6c0-4.1-0.9-7.5-2.6-10c-1.7-2.5-4.5-3.8-8.3-3.8c-3.3,0-6,1.2-8.1,3.5c-2,2.3-3.1,5.4-3.1,9.1v39.4
		c0,3.2,1.1,5.8,3.2,7.9c2.1,2.1,4.8,3.1,8,3.1c4.2,0,7.1-1.2,8.6-3.6c1.5-2.4,2.3-5.2,2.3-8.4V85.6z"/>
</g>
<g>
</g>
<g>
</g>
<g>
</g>
<g>
</g>
<g>
</g>
<g>
</g>
</svg>
